<mxfile host="65bd71144e" modified="2021-11-08T01:20:54.368Z" agent="5.0 (Windows NT 10.0; Win64; x64) AppleWebKit/537.36 (KHTML, like Gecko) Code/1.62.0 Chrome/91.0.4472.164 Electron/13.5.1 Safari/537.36" etag="OTPNRn-9QoiXTiAj8g51" version="15.6.8" type="embed">
    <diagram id="-0Ov3nPBQ35cwhIOGVOA" name="見積画面">
        <mxGraphModel dx="747" dy="437" grid="1" gridSize="10" guides="0" tooltips="1" connect="0" arrows="0" fold="1" page="1" pageScale="1" pageWidth="827" pageHeight="1169" math="0" shadow="1">
            <root>
                <mxCell id="0"/>
                <object label="背景" id="eYTryUa2pfiXz0CCvSNq-202">
                    <mxCell style="" parent="0"/>
                </object>
                <mxCell id="eYTryUa2pfiXz0CCvSNq-207" value="" style="rounded=0;whiteSpace=wrap;html=1;shadow=1;" parent="eYTryUa2pfiXz0CCvSNq-202" vertex="1">
                    <mxGeometry x="80" y="50" width="460" height="360" as="geometry"/>
                </mxCell>
                <object label="パーツ" id="1">
                    <mxCell style="" parent="0"/>
                </object>
                <mxCell id="eYTryUa2pfiXz0CCvSNq-2" value="&lt;div&gt;見積入力&lt;/div&gt;" style="text;html=1;strokeColor=none;fillColor=none;align=center;verticalAlign=middle;whiteSpace=wrap;rounded=0;" parent="1" vertex="1">
                    <mxGeometry x="250" y="50" width="60" height="30" as="geometry"/>
                </mxCell>
                <mxCell id="eYTryUa2pfiXz0CCvSNq-4" value="&lt;div&gt;商品コード&lt;/div&gt;" style="text;html=1;align=center;verticalAlign=middle;resizable=0;points=[];autosize=1;strokeColor=none;fillColor=none;" parent="1" vertex="1">
                    <mxGeometry x="130" y="90" width="80" height="20" as="geometry"/>
                </mxCell>
                <mxCell id="eYTryUa2pfiXz0CCvSNq-5" value="&lt;div&gt;Office&lt;/div&gt;" style="text;html=1;align=center;verticalAlign=middle;resizable=0;points=[];autosize=1;strokeColor=none;fillColor=none;" parent="1" vertex="1">
                    <mxGeometry x="145" y="170" width="50" height="20" as="geometry"/>
                </mxCell>
                <mxCell id="eYTryUa2pfiXz0CCvSNq-6" value="&lt;div&gt;SSD&lt;/div&gt;" style="text;html=1;align=center;verticalAlign=middle;resizable=0;points=[];autosize=1;strokeColor=none;fillColor=none;" parent="1" vertex="1">
                    <mxGeometry x="150" y="200" width="40" height="20" as="geometry"/>
                </mxCell>
                <mxCell id="eYTryUa2pfiXz0CCvSNq-7" value="メモリ" style="text;html=1;align=center;verticalAlign=middle;resizable=0;points=[];autosize=1;strokeColor=none;fillColor=none;" parent="1" vertex="1">
                    <mxGeometry x="145" y="230" width="50" height="20" as="geometry"/>
                </mxCell>
                <mxCell id="eYTryUa2pfiXz0CCvSNq-8" value="" style="rounded=0;whiteSpace=wrap;html=1;" parent="1" vertex="1">
                    <mxGeometry x="210" y="90" width="120" height="20" as="geometry"/>
                </mxCell>
                <mxCell id="eYTryUa2pfiXz0CCvSNq-9" value="入力" style="rounded=0;whiteSpace=wrap;html=1;" parent="1" vertex="1">
                    <mxGeometry x="340" y="90" width="40" height="20" as="geometry"/>
                </mxCell>
                <mxCell id="eYTryUa2pfiXz0CCvSNq-10" value="仕入価格" style="text;html=1;align=center;verticalAlign=middle;resizable=0;points=[];autosize=1;strokeColor=none;fillColor=none;" parent="1" vertex="1">
                    <mxGeometry x="150" y="120" width="60" height="20" as="geometry"/>
                </mxCell>
                <mxCell id="eYTryUa2pfiXz0CCvSNq-11" value="粗利率" style="text;html=1;align=center;verticalAlign=middle;resizable=0;points=[];autosize=1;strokeColor=none;fillColor=none;" parent="1" vertex="1">
                    <mxGeometry x="260" y="119" width="50" height="20" as="geometry"/>
                </mxCell>
                <mxCell id="eYTryUa2pfiXz0CCvSNq-12" value="&lt;div&gt;販売価格&lt;/div&gt;" style="text;html=1;align=center;verticalAlign=middle;resizable=0;points=[];autosize=1;strokeColor=none;fillColor=none;" parent="1" vertex="1">
                    <mxGeometry x="400" y="120" width="60" height="20" as="geometry"/>
                </mxCell>
                <mxCell id="eYTryUa2pfiXz0CCvSNq-13" value="" style="rounded=0;whiteSpace=wrap;html=1;" parent="1" vertex="1">
                    <mxGeometry x="140" y="140" width="80" height="20" as="geometry"/>
                </mxCell>
                <mxCell id="eYTryUa2pfiXz0CCvSNq-14" value="" style="rounded=0;whiteSpace=wrap;html=1;" parent="1" vertex="1">
                    <mxGeometry x="250" y="140" width="80" height="20" as="geometry"/>
                </mxCell>
                <mxCell id="eYTryUa2pfiXz0CCvSNq-15" value="" style="rounded=0;whiteSpace=wrap;html=1;" parent="1" vertex="1">
                    <mxGeometry x="390" y="140" width="90" height="20" as="geometry"/>
                </mxCell>
                <mxCell id="eYTryUa2pfiXz0CCvSNq-17" value="￥" style="text;html=1;strokeColor=none;fillColor=none;align=center;verticalAlign=middle;whiteSpace=wrap;rounded=0;" parent="1" vertex="1">
                    <mxGeometry x="240" y="140" width="10" height="20" as="geometry"/>
                </mxCell>
                <mxCell id="eYTryUa2pfiXz0CCvSNq-18" value="￥" style="text;html=1;strokeColor=none;fillColor=none;align=center;verticalAlign=middle;whiteSpace=wrap;rounded=0;" parent="1" vertex="1">
                    <mxGeometry x="380" y="140" width="10" height="20" as="geometry"/>
                </mxCell>
                <mxCell id="eYTryUa2pfiXz0CCvSNq-19" value="%" style="text;html=1;strokeColor=none;fillColor=none;align=center;verticalAlign=middle;whiteSpace=wrap;rounded=0;" parent="1" vertex="1">
                    <mxGeometry x="330" y="140" width="20" height="20" as="geometry"/>
                </mxCell>
                <mxCell id="eYTryUa2pfiXz0CCvSNq-28" value="" style="rounded=0;whiteSpace=wrap;html=1;" parent="1" vertex="1">
                    <mxGeometry x="250" y="170" width="80" height="20" as="geometry"/>
                </mxCell>
                <mxCell id="eYTryUa2pfiXz0CCvSNq-20" value="▼" style="rounded=0;whiteSpace=wrap;html=1;" parent="1" vertex="1">
                    <mxGeometry x="310" y="170" width="20" height="20" as="geometry"/>
                </mxCell>
                <mxCell id="eYTryUa2pfiXz0CCvSNq-32" value="" style="rounded=0;whiteSpace=wrap;html=1;" parent="1" vertex="1">
                    <mxGeometry x="390" y="170" width="90" height="20" as="geometry"/>
                </mxCell>
                <mxCell id="eYTryUa2pfiXz0CCvSNq-33" value="￥" style="text;html=1;strokeColor=none;fillColor=none;align=center;verticalAlign=middle;whiteSpace=wrap;rounded=0;" parent="1" vertex="1">
                    <mxGeometry x="380" y="170" width="10" height="20" as="geometry"/>
                </mxCell>
                <mxCell id="eYTryUa2pfiXz0CCvSNq-34" value="" style="rounded=0;whiteSpace=wrap;html=1;" parent="1" vertex="1">
                    <mxGeometry x="390" y="200" width="90" height="20" as="geometry"/>
                </mxCell>
                <mxCell id="eYTryUa2pfiXz0CCvSNq-35" value="￥" style="text;html=1;strokeColor=none;fillColor=none;align=center;verticalAlign=middle;whiteSpace=wrap;rounded=0;" parent="1" vertex="1">
                    <mxGeometry x="380" y="200" width="10" height="20" as="geometry"/>
                </mxCell>
                <mxCell id="eYTryUa2pfiXz0CCvSNq-36" value="" style="rounded=0;whiteSpace=wrap;html=1;" parent="1" vertex="1">
                    <mxGeometry x="390" y="230" width="90" height="20" as="geometry"/>
                </mxCell>
                <mxCell id="eYTryUa2pfiXz0CCvSNq-37" value="￥" style="text;html=1;strokeColor=none;fillColor=none;align=center;verticalAlign=middle;whiteSpace=wrap;rounded=0;" parent="1" vertex="1">
                    <mxGeometry x="380" y="230" width="10" height="20" as="geometry"/>
                </mxCell>
                <mxCell id="eYTryUa2pfiXz0CCvSNq-38" value="" style="rounded=0;whiteSpace=wrap;html=1;" parent="1" vertex="1">
                    <mxGeometry x="250" y="200" width="80" height="20" as="geometry"/>
                </mxCell>
                <mxCell id="eYTryUa2pfiXz0CCvSNq-39" value="▼" style="rounded=0;whiteSpace=wrap;html=1;" parent="1" vertex="1">
                    <mxGeometry x="310" y="200" width="20" height="20" as="geometry"/>
                </mxCell>
                <mxCell id="eYTryUa2pfiXz0CCvSNq-40" value="" style="rounded=0;whiteSpace=wrap;html=1;" parent="1" vertex="1">
                    <mxGeometry x="250" y="230" width="37.5" height="20" as="geometry"/>
                </mxCell>
                <mxCell id="eYTryUa2pfiXz0CCvSNq-41" value="▼" style="rounded=0;whiteSpace=wrap;html=1;" parent="1" vertex="1">
                    <mxGeometry x="270" y="230" width="17.5" height="20" as="geometry"/>
                </mxCell>
                <mxCell id="eYTryUa2pfiXz0CCvSNq-59" value="" style="shape=table;html=1;whiteSpace=wrap;startSize=0;container=1;collapsible=0;childLayout=tableLayout;" parent="1" vertex="1">
                    <mxGeometry x="100" y="290" width="190" height="80" as="geometry"/>
                </mxCell>
                <mxCell id="eYTryUa2pfiXz0CCvSNq-64" value="" style="shape=partialRectangle;html=1;whiteSpace=wrap;collapsible=0;dropTarget=0;pointerEvents=0;fillColor=none;top=0;left=0;bottom=0;right=0;points=[[0,0.5],[1,0.5]];portConstraint=eastwest;" parent="eYTryUa2pfiXz0CCvSNq-59" vertex="1">
                    <mxGeometry width="190" height="20" as="geometry"/>
                </mxCell>
                <mxCell id="eYTryUa2pfiXz0CCvSNq-65" value="&lt;div&gt;商品コード&lt;/div&gt;" style="shape=partialRectangle;html=1;whiteSpace=wrap;connectable=0;fillColor=none;top=0;left=0;bottom=0;right=0;overflow=hidden;pointerEvents=1;" parent="eYTryUa2pfiXz0CCvSNq-64" vertex="1">
                    <mxGeometry width="64" height="20" as="geometry">
                        <mxRectangle width="64" height="20" as="alternateBounds"/>
                    </mxGeometry>
                </mxCell>
                <mxCell id="eYTryUa2pfiXz0CCvSNq-66" value="型番" style="shape=partialRectangle;html=1;whiteSpace=wrap;connectable=0;fillColor=none;top=0;left=0;bottom=0;right=0;overflow=hidden;pointerEvents=1;" parent="eYTryUa2pfiXz0CCvSNq-64" vertex="1">
                    <mxGeometry x="64" width="62" height="20" as="geometry">
                        <mxRectangle width="62" height="20" as="alternateBounds"/>
                    </mxGeometry>
                </mxCell>
                <mxCell id="eYTryUa2pfiXz0CCvSNq-67" value="&lt;div&gt;仕入価格&lt;/div&gt;" style="shape=partialRectangle;html=1;whiteSpace=wrap;connectable=0;fillColor=none;top=0;left=0;bottom=0;right=0;overflow=hidden;pointerEvents=1;" parent="eYTryUa2pfiXz0CCvSNq-64" vertex="1">
                    <mxGeometry x="126" width="64" height="20" as="geometry">
                        <mxRectangle width="64" height="20" as="alternateBounds"/>
                    </mxGeometry>
                </mxCell>
                <mxCell id="eYTryUa2pfiXz0CCvSNq-98" value="" style="shape=partialRectangle;html=1;whiteSpace=wrap;collapsible=0;dropTarget=0;pointerEvents=0;fillColor=none;top=0;left=0;bottom=0;right=0;points=[[0,0.5],[1,0.5]];portConstraint=eastwest;" parent="eYTryUa2pfiXz0CCvSNq-59" vertex="1">
                    <mxGeometry y="20" width="190" height="20" as="geometry"/>
                </mxCell>
                <mxCell id="eYTryUa2pfiXz0CCvSNq-99" value="" style="shape=partialRectangle;html=1;whiteSpace=wrap;connectable=0;fillColor=none;top=0;left=0;bottom=0;right=0;overflow=hidden;pointerEvents=1;" parent="eYTryUa2pfiXz0CCvSNq-98" vertex="1">
                    <mxGeometry width="64" height="20" as="geometry">
                        <mxRectangle width="64" height="20" as="alternateBounds"/>
                    </mxGeometry>
                </mxCell>
                <mxCell id="eYTryUa2pfiXz0CCvSNq-100" value="" style="shape=partialRectangle;html=1;whiteSpace=wrap;connectable=0;fillColor=none;top=0;left=0;bottom=0;right=0;overflow=hidden;pointerEvents=1;" parent="eYTryUa2pfiXz0CCvSNq-98" vertex="1">
                    <mxGeometry x="64" width="62" height="20" as="geometry">
                        <mxRectangle width="62" height="20" as="alternateBounds"/>
                    </mxGeometry>
                </mxCell>
                <mxCell id="eYTryUa2pfiXz0CCvSNq-101" value="" style="shape=partialRectangle;html=1;whiteSpace=wrap;connectable=0;fillColor=none;top=0;left=0;bottom=0;right=0;overflow=hidden;pointerEvents=1;" parent="eYTryUa2pfiXz0CCvSNq-98" vertex="1">
                    <mxGeometry x="126" width="64" height="20" as="geometry">
                        <mxRectangle width="64" height="20" as="alternateBounds"/>
                    </mxGeometry>
                </mxCell>
                <mxCell id="eYTryUa2pfiXz0CCvSNq-60" value="" style="shape=partialRectangle;html=1;whiteSpace=wrap;collapsible=0;dropTarget=0;pointerEvents=0;fillColor=none;top=0;left=0;bottom=0;right=0;points=[[0,0.5],[1,0.5]];portConstraint=eastwest;" parent="eYTryUa2pfiXz0CCvSNq-59" vertex="1">
                    <mxGeometry y="40" width="190" height="20" as="geometry"/>
                </mxCell>
                <mxCell id="eYTryUa2pfiXz0CCvSNq-61" value="" style="shape=partialRectangle;html=1;whiteSpace=wrap;connectable=0;fillColor=none;top=0;left=0;bottom=0;right=0;overflow=hidden;pointerEvents=1;" parent="eYTryUa2pfiXz0CCvSNq-60" vertex="1">
                    <mxGeometry width="64" height="20" as="geometry">
                        <mxRectangle width="64" height="20" as="alternateBounds"/>
                    </mxGeometry>
                </mxCell>
                <mxCell id="eYTryUa2pfiXz0CCvSNq-62" value="" style="shape=partialRectangle;html=1;whiteSpace=wrap;connectable=0;fillColor=none;top=0;left=0;bottom=0;right=0;overflow=hidden;pointerEvents=1;" parent="eYTryUa2pfiXz0CCvSNq-60" vertex="1">
                    <mxGeometry x="64" width="62" height="20" as="geometry">
                        <mxRectangle width="62" height="20" as="alternateBounds"/>
                    </mxGeometry>
                </mxCell>
                <mxCell id="eYTryUa2pfiXz0CCvSNq-63" value="" style="shape=partialRectangle;html=1;whiteSpace=wrap;connectable=0;fillColor=none;top=0;left=0;bottom=0;right=0;overflow=hidden;pointerEvents=1;" parent="eYTryUa2pfiXz0CCvSNq-60" vertex="1">
                    <mxGeometry x="126" width="64" height="20" as="geometry">
                        <mxRectangle width="64" height="20" as="alternateBounds"/>
                    </mxGeometry>
                </mxCell>
                <mxCell id="eYTryUa2pfiXz0CCvSNq-68" value="" style="shape=partialRectangle;html=1;whiteSpace=wrap;collapsible=0;dropTarget=0;pointerEvents=0;fillColor=none;top=0;left=0;bottom=0;right=0;points=[[0,0.5],[1,0.5]];portConstraint=eastwest;" parent="eYTryUa2pfiXz0CCvSNq-59" vertex="1">
                    <mxGeometry y="60" width="190" height="20" as="geometry"/>
                </mxCell>
                <mxCell id="eYTryUa2pfiXz0CCvSNq-69" value="" style="shape=partialRectangle;html=1;whiteSpace=wrap;connectable=0;fillColor=none;top=0;left=0;bottom=0;right=0;overflow=hidden;pointerEvents=1;" parent="eYTryUa2pfiXz0CCvSNq-68" vertex="1">
                    <mxGeometry width="64" height="20" as="geometry">
                        <mxRectangle width="64" height="20" as="alternateBounds"/>
                    </mxGeometry>
                </mxCell>
                <mxCell id="eYTryUa2pfiXz0CCvSNq-70" value="" style="shape=partialRectangle;html=1;whiteSpace=wrap;connectable=0;fillColor=none;top=0;left=0;bottom=0;right=0;overflow=hidden;pointerEvents=1;" parent="eYTryUa2pfiXz0CCvSNq-68" vertex="1">
                    <mxGeometry x="64" width="62" height="20" as="geometry">
                        <mxRectangle width="62" height="20" as="alternateBounds"/>
                    </mxGeometry>
                </mxCell>
                <mxCell id="eYTryUa2pfiXz0CCvSNq-71" value="" style="shape=partialRectangle;html=1;whiteSpace=wrap;connectable=0;fillColor=none;top=0;left=0;bottom=0;right=0;overflow=hidden;pointerEvents=1;" parent="eYTryUa2pfiXz0CCvSNq-68" vertex="1">
                    <mxGeometry x="126" width="64" height="20" as="geometry">
                        <mxRectangle width="64" height="20" as="alternateBounds"/>
                    </mxGeometry>
                </mxCell>
                <mxCell id="eYTryUa2pfiXz0CCvSNq-128" value="" style="shape=table;html=1;whiteSpace=wrap;startSize=0;container=1;collapsible=0;childLayout=tableLayout;" parent="1" vertex="1">
                    <mxGeometry x="290" y="290" width="190" height="80" as="geometry"/>
                </mxCell>
                <mxCell id="eYTryUa2pfiXz0CCvSNq-129" value="" style="shape=partialRectangle;html=1;whiteSpace=wrap;collapsible=0;dropTarget=0;pointerEvents=0;fillColor=none;top=0;left=0;bottom=0;right=0;points=[[0,0.5],[1,0.5]];portConstraint=eastwest;" parent="eYTryUa2pfiXz0CCvSNq-128" vertex="1">
                    <mxGeometry width="190" height="20" as="geometry"/>
                </mxCell>
                <mxCell id="eYTryUa2pfiXz0CCvSNq-130" value="粗利率" style="shape=partialRectangle;html=1;whiteSpace=wrap;connectable=0;fillColor=none;top=0;left=0;bottom=0;right=0;overflow=hidden;pointerEvents=1;" parent="eYTryUa2pfiXz0CCvSNq-129" vertex="1">
                    <mxGeometry width="50" height="20" as="geometry">
                        <mxRectangle width="50" height="20" as="alternateBounds"/>
                    </mxGeometry>
                </mxCell>
                <mxCell id="eYTryUa2pfiXz0CCvSNq-131" value="粗利" style="shape=partialRectangle;html=1;whiteSpace=wrap;connectable=0;fillColor=none;top=0;left=0;bottom=0;right=0;overflow=hidden;pointerEvents=1;" parent="eYTryUa2pfiXz0CCvSNq-129" vertex="1">
                    <mxGeometry x="50" width="50" height="20" as="geometry">
                        <mxRectangle width="50" height="20" as="alternateBounds"/>
                    </mxGeometry>
                </mxCell>
                <mxCell id="eYTryUa2pfiXz0CCvSNq-132" value="販売価格" style="shape=partialRectangle;html=1;whiteSpace=wrap;connectable=0;fillColor=none;top=0;left=0;bottom=0;right=0;overflow=hidden;pointerEvents=1;" parent="eYTryUa2pfiXz0CCvSNq-129" vertex="1">
                    <mxGeometry x="100" width="90" height="20" as="geometry">
                        <mxRectangle width="90" height="20" as="alternateBounds"/>
                    </mxGeometry>
                </mxCell>
                <mxCell id="eYTryUa2pfiXz0CCvSNq-133" value="" style="shape=partialRectangle;html=1;whiteSpace=wrap;collapsible=0;dropTarget=0;pointerEvents=0;fillColor=none;top=0;left=0;bottom=0;right=0;points=[[0,0.5],[1,0.5]];portConstraint=eastwest;" parent="eYTryUa2pfiXz0CCvSNq-128" vertex="1">
                    <mxGeometry y="20" width="190" height="20" as="geometry"/>
                </mxCell>
                <mxCell id="eYTryUa2pfiXz0CCvSNq-134" value="" style="shape=partialRectangle;html=1;whiteSpace=wrap;connectable=0;fillColor=none;top=0;left=0;bottom=0;right=0;overflow=hidden;pointerEvents=1;" parent="eYTryUa2pfiXz0CCvSNq-133" vertex="1">
                    <mxGeometry width="50" height="20" as="geometry">
                        <mxRectangle width="50" height="20" as="alternateBounds"/>
                    </mxGeometry>
                </mxCell>
                <mxCell id="eYTryUa2pfiXz0CCvSNq-135" value="" style="shape=partialRectangle;html=1;whiteSpace=wrap;connectable=0;fillColor=none;top=0;left=0;bottom=0;right=0;overflow=hidden;pointerEvents=1;" parent="eYTryUa2pfiXz0CCvSNq-133" vertex="1">
                    <mxGeometry x="50" width="50" height="20" as="geometry">
                        <mxRectangle width="50" height="20" as="alternateBounds"/>
                    </mxGeometry>
                </mxCell>
                <mxCell id="eYTryUa2pfiXz0CCvSNq-136" value="" style="shape=partialRectangle;html=1;whiteSpace=wrap;connectable=0;fillColor=none;top=0;left=0;bottom=0;right=0;overflow=hidden;pointerEvents=1;" parent="eYTryUa2pfiXz0CCvSNq-133" vertex="1">
                    <mxGeometry x="100" width="90" height="20" as="geometry">
                        <mxRectangle width="90" height="20" as="alternateBounds"/>
                    </mxGeometry>
                </mxCell>
                <mxCell id="eYTryUa2pfiXz0CCvSNq-137" value="" style="shape=partialRectangle;html=1;whiteSpace=wrap;collapsible=0;dropTarget=0;pointerEvents=0;fillColor=none;top=0;left=0;bottom=0;right=0;points=[[0,0.5],[1,0.5]];portConstraint=eastwest;" parent="eYTryUa2pfiXz0CCvSNq-128" vertex="1">
                    <mxGeometry y="40" width="190" height="20" as="geometry"/>
                </mxCell>
                <mxCell id="eYTryUa2pfiXz0CCvSNq-138" value="" style="shape=partialRectangle;html=1;whiteSpace=wrap;connectable=0;fillColor=none;top=0;left=0;bottom=0;right=0;overflow=hidden;pointerEvents=1;" parent="eYTryUa2pfiXz0CCvSNq-137" vertex="1">
                    <mxGeometry width="50" height="20" as="geometry">
                        <mxRectangle width="50" height="20" as="alternateBounds"/>
                    </mxGeometry>
                </mxCell>
                <mxCell id="eYTryUa2pfiXz0CCvSNq-139" value="" style="shape=partialRectangle;html=1;whiteSpace=wrap;connectable=0;fillColor=none;top=0;left=0;bottom=0;right=0;overflow=hidden;pointerEvents=1;" parent="eYTryUa2pfiXz0CCvSNq-137" vertex="1">
                    <mxGeometry x="50" width="50" height="20" as="geometry">
                        <mxRectangle width="50" height="20" as="alternateBounds"/>
                    </mxGeometry>
                </mxCell>
                <mxCell id="eYTryUa2pfiXz0CCvSNq-140" value="" style="shape=partialRectangle;html=1;whiteSpace=wrap;connectable=0;fillColor=none;top=0;left=0;bottom=0;right=0;overflow=hidden;pointerEvents=1;" parent="eYTryUa2pfiXz0CCvSNq-137" vertex="1">
                    <mxGeometry x="100" width="90" height="20" as="geometry">
                        <mxRectangle width="90" height="20" as="alternateBounds"/>
                    </mxGeometry>
                </mxCell>
                <mxCell id="eYTryUa2pfiXz0CCvSNq-141" value="" style="shape=partialRectangle;html=1;whiteSpace=wrap;collapsible=0;dropTarget=0;pointerEvents=0;fillColor=none;top=0;left=0;bottom=0;right=0;points=[[0,0.5],[1,0.5]];portConstraint=eastwest;" parent="eYTryUa2pfiXz0CCvSNq-128" vertex="1">
                    <mxGeometry y="60" width="190" height="20" as="geometry"/>
                </mxCell>
                <mxCell id="eYTryUa2pfiXz0CCvSNq-142" value="" style="shape=partialRectangle;html=1;whiteSpace=wrap;connectable=0;fillColor=none;top=0;left=0;bottom=0;right=0;overflow=hidden;pointerEvents=1;" parent="eYTryUa2pfiXz0CCvSNq-141" vertex="1">
                    <mxGeometry width="50" height="20" as="geometry">
                        <mxRectangle width="50" height="20" as="alternateBounds"/>
                    </mxGeometry>
                </mxCell>
                <mxCell id="eYTryUa2pfiXz0CCvSNq-143" value="" style="shape=partialRectangle;html=1;whiteSpace=wrap;connectable=0;fillColor=none;top=0;left=0;bottom=0;right=0;overflow=hidden;pointerEvents=1;" parent="eYTryUa2pfiXz0CCvSNq-141" vertex="1">
                    <mxGeometry x="50" width="50" height="20" as="geometry">
                        <mxRectangle width="50" height="20" as="alternateBounds"/>
                    </mxGeometry>
                </mxCell>
                <mxCell id="eYTryUa2pfiXz0CCvSNq-144" value="" style="shape=partialRectangle;html=1;whiteSpace=wrap;connectable=0;fillColor=none;top=0;left=0;bottom=0;right=0;overflow=hidden;pointerEvents=1;" parent="eYTryUa2pfiXz0CCvSNq-141" vertex="1">
                    <mxGeometry x="100" width="90" height="20" as="geometry">
                        <mxRectangle width="90" height="20" as="alternateBounds"/>
                    </mxGeometry>
                </mxCell>
                <mxCell id="eYTryUa2pfiXz0CCvSNq-146" value="合計" style="text;html=1;strokeColor=none;fillColor=none;align=center;verticalAlign=middle;whiteSpace=wrap;rounded=0;" parent="1" vertex="1">
                    <mxGeometry x="350" y="380" width="30" height="20" as="geometry"/>
                </mxCell>
                <mxCell id="eYTryUa2pfiXz0CCvSNq-147" value="" style="rounded=0;whiteSpace=wrap;html=1;" parent="1" vertex="1">
                    <mxGeometry x="390" y="380" width="90" height="20" as="geometry"/>
                </mxCell>
                <mxCell id="eYTryUa2pfiXz0CCvSNq-150" value="￥" style="text;html=1;strokeColor=none;fillColor=none;align=center;verticalAlign=middle;whiteSpace=wrap;rounded=0;" parent="1" vertex="1">
                    <mxGeometry x="380" y="380" width="10" height="20" as="geometry"/>
                </mxCell>
                <mxCell id="eYTryUa2pfiXz0CCvSNq-152" value="GB" style="text;html=1;strokeColor=none;fillColor=none;align=center;verticalAlign=middle;whiteSpace=wrap;rounded=0;" parent="1" vertex="1">
                    <mxGeometry x="330" y="200" width="20" height="20" as="geometry"/>
                </mxCell>
                <mxCell id="eYTryUa2pfiXz0CCvSNq-153" value="枚" style="text;html=1;strokeColor=none;fillColor=none;align=center;verticalAlign=middle;whiteSpace=wrap;rounded=0;" parent="1" vertex="1">
                    <mxGeometry x="330" y="230" width="20" height="20" as="geometry"/>
                </mxCell>
                <mxCell id="eYTryUa2pfiXz0CCvSNq-155" value="" style="rounded=0;whiteSpace=wrap;html=1;" parent="1" vertex="1">
                    <mxGeometry x="310" y="230" width="20" height="20" as="geometry"/>
                </mxCell>
                <mxCell id="eYTryUa2pfiXz0CCvSNq-159" value="GB" style="text;html=1;strokeColor=none;fillColor=none;align=center;verticalAlign=middle;whiteSpace=wrap;rounded=0;" parent="1" vertex="1">
                    <mxGeometry x="287.5" y="230" width="20" height="20" as="geometry"/>
                </mxCell>
                <mxCell id="eYTryUa2pfiXz0CCvSNq-16" value="￥" style="text;html=1;strokeColor=none;fillColor=none;align=center;verticalAlign=middle;whiteSpace=wrap;rounded=0;" parent="1" vertex="1">
                    <mxGeometry x="130" y="140" width="10" height="20" as="geometry"/>
                </mxCell>
                <mxCell id="8I_ROSzSqiyH3dXBf1Dt-1" value="&lt;div&gt;削除&lt;/div&gt;" style="rounded=0;whiteSpace=wrap;html=1;" parent="1" vertex="1">
                    <mxGeometry x="480" y="310" width="40" height="20" as="geometry"/>
                </mxCell>
                <mxCell id="8I_ROSzSqiyH3dXBf1Dt-2" value="&lt;div&gt;削除&lt;/div&gt;" style="rounded=0;whiteSpace=wrap;html=1;" parent="1" vertex="1">
                    <mxGeometry x="480" y="330" width="40" height="20" as="geometry"/>
                </mxCell>
                <mxCell id="8I_ROSzSqiyH3dXBf1Dt-3" value="&lt;div&gt;削除&lt;/div&gt;" style="rounded=0;whiteSpace=wrap;html=1;" parent="1" vertex="1">
                    <mxGeometry x="480" y="350" width="40" height="20" as="geometry"/>
                </mxCell>
                <mxCell id="8I_ROSzSqiyH3dXBf1Dt-10" value="&lt;div&gt;追加&lt;/div&gt;" style="rounded=0;whiteSpace=wrap;html=1;" parent="1" vertex="1">
                    <mxGeometry x="440" y="260" width="40" height="20" as="geometry"/>
                </mxCell>
                <mxCell id="zf17994pS7ql2T0KgbWy-1" value="提示" style="rounded=0;whiteSpace=wrap;html=1;" parent="1" vertex="1">
                    <mxGeometry x="480" y="380" width="40" height="20" as="geometry"/>
                </mxCell>
                <object label="矢印" id="eYTryUa2pfiXz0CCvSNq-208">
                    <mxCell style="locked=1;" parent="0"/>
                </object>
                <mxCell id="eYTryUa2pfiXz0CCvSNq-522" value="③" style="whiteSpace=wrap;html=1;aspect=fixed;shadow=1;" parent="eYTryUa2pfiXz0CCvSNq-208" vertex="1">
                    <mxGeometry x="200" y="10" width="20" height="20" as="geometry"/>
                </mxCell>
                <mxCell id="eYTryUa2pfiXz0CCvSNq-523" value="④" style="whiteSpace=wrap;html=1;aspect=fixed;shadow=1;" parent="eYTryUa2pfiXz0CCvSNq-208" vertex="1">
                    <mxGeometry x="350" y="10" width="20" height="20" as="geometry"/>
                </mxCell>
                <mxCell id="eYTryUa2pfiXz0CCvSNq-524" value="②" style="whiteSpace=wrap;html=1;aspect=fixed;shadow=1;" parent="eYTryUa2pfiXz0CCvSNq-208" vertex="1">
                    <mxGeometry x="100" y="10" width="20" height="20" as="geometry"/>
                </mxCell>
                <mxCell id="eYTryUa2pfiXz0CCvSNq-525" value="①" style="whiteSpace=wrap;html=1;aspect=fixed;shadow=1;" parent="eYTryUa2pfiXz0CCvSNq-208" vertex="1">
                    <mxGeometry x="20" y="10" width="20" height="20" as="geometry"/>
                </mxCell>
                <mxCell id="eYTryUa2pfiXz0CCvSNq-526" value="⑤" style="whiteSpace=wrap;html=1;aspect=fixed;shadow=1;" parent="eYTryUa2pfiXz0CCvSNq-208" vertex="1">
                    <mxGeometry x="10" y="70" width="20" height="20" as="geometry"/>
                </mxCell>
                <mxCell id="eYTryUa2pfiXz0CCvSNq-527" value="⑦" style="whiteSpace=wrap;html=1;aspect=fixed;shadow=1;" parent="eYTryUa2pfiXz0CCvSNq-208" vertex="1">
                    <mxGeometry x="40" y="100" width="20" height="20" as="geometry"/>
                </mxCell>
                <mxCell id="eYTryUa2pfiXz0CCvSNq-528" value="⑥" style="whiteSpace=wrap;html=1;aspect=fixed;shadow=1;" parent="eYTryUa2pfiXz0CCvSNq-208" vertex="1">
                    <mxGeometry x="10" y="120" width="20" height="20" as="geometry"/>
                </mxCell>
                <mxCell id="eYTryUa2pfiXz0CCvSNq-529" value="⑨" style="whiteSpace=wrap;html=1;aspect=fixed;shadow=1;" parent="eYTryUa2pfiXz0CCvSNq-208" vertex="1">
                    <mxGeometry x="10" y="150" width="20" height="20" as="geometry"/>
                </mxCell>
                <mxCell id="eYTryUa2pfiXz0CCvSNq-530" value="" style="endArrow=none;html=1;rounded=0;entryX=1.02;entryY=0.69;entryDx=0;entryDy=0;entryPerimeter=0;" parent="eYTryUa2pfiXz0CCvSNq-208" target="eYTryUa2pfiXz0CCvSNq-522" edge="1">
                    <mxGeometry width="50" height="50" relative="1" as="geometry">
                        <mxPoint x="287.5" y="60" as="sourcePoint"/>
                        <mxPoint x="200" y="20" as="targetPoint"/>
                    </mxGeometry>
                </mxCell>
                <mxCell id="eYTryUa2pfiXz0CCvSNq-531" value="" style="endArrow=none;html=1;rounded=0;shadow=1;entryX=1.048;entryY=0.616;entryDx=0;entryDy=0;entryPerimeter=0;" parent="eYTryUa2pfiXz0CCvSNq-208" target="eYTryUa2pfiXz0CCvSNq-525" edge="1">
                    <mxGeometry width="50" height="50" relative="1" as="geometry">
                        <mxPoint x="140" y="100" as="sourcePoint"/>
                        <mxPoint x="52.5" y="60" as="targetPoint"/>
                    </mxGeometry>
                </mxCell>
                <mxCell id="eYTryUa2pfiXz0CCvSNq-532" value="" style="endArrow=none;html=1;rounded=0;shadow=1;exitX=0.083;exitY=-0.107;exitDx=0;exitDy=0;exitPerimeter=0;entryX=0.945;entryY=0.702;entryDx=0;entryDy=0;entryPerimeter=0;" parent="eYTryUa2pfiXz0CCvSNq-208" target="eYTryUa2pfiXz0CCvSNq-524" edge="1">
                    <mxGeometry width="50" height="50" relative="1" as="geometry">
                        <mxPoint x="219.95999999999992" y="87.86000000000001" as="sourcePoint"/>
                        <mxPoint x="122.5" y="30" as="targetPoint"/>
                    </mxGeometry>
                </mxCell>
                <mxCell id="eYTryUa2pfiXz0CCvSNq-533" value="" style="endArrow=none;html=1;rounded=0;exitX=0.45;exitY=-0.079;exitDx=0;exitDy=0;exitPerimeter=0;entryX=0.36;entryY=0.97;entryDx=0;entryDy=0;entryPerimeter=0;" parent="eYTryUa2pfiXz0CCvSNq-208" source="eYTryUa2pfiXz0CCvSNq-9" target="eYTryUa2pfiXz0CCvSNq-523" edge="1">
                    <mxGeometry width="50" height="50" relative="1" as="geometry">
                        <mxPoint x="354.8399999999999" y="89.27999999999997" as="sourcePoint"/>
                        <mxPoint x="390.0799999999999" y="31.020000000000095" as="targetPoint"/>
                    </mxGeometry>
                </mxCell>
                <mxCell id="eYTryUa2pfiXz0CCvSNq-535" value="" style="endArrow=none;html=1;rounded=0;shadow=1;entryX=1.08;entryY=0.55;entryDx=0;entryDy=0;entryPerimeter=0;exitX=0;exitY=0.5;exitDx=0;exitDy=0;exitPerimeter=0;" parent="eYTryUa2pfiXz0CCvSNq-208" source="eYTryUa2pfiXz0CCvSNq-10" target="eYTryUa2pfiXz0CCvSNq-526" edge="1">
                    <mxGeometry width="50" height="50" relative="1" as="geometry">
                        <mxPoint x="150" y="128" as="sourcePoint"/>
                        <mxPoint x="70.96000000000004" y="80" as="targetPoint"/>
                    </mxGeometry>
                </mxCell>
                <mxCell id="eYTryUa2pfiXz0CCvSNq-536" value="" style="endArrow=none;html=1;rounded=0;shadow=1;entryX=1.04;entryY=0.49;entryDx=0;entryDy=0;entryPerimeter=0;exitX=1.183;exitY=0.042;exitDx=0;exitDy=0;exitPerimeter=0;" parent="eYTryUa2pfiXz0CCvSNq-208" source="eYTryUa2pfiXz0CCvSNq-16" target="eYTryUa2pfiXz0CCvSNq-527" edge="1">
                    <mxGeometry width="50" height="50" relative="1" as="geometry">
                        <mxPoint x="160" y="140" as="sourcePoint"/>
                        <mxPoint x="71.60000000000002" y="101" as="targetPoint"/>
                    </mxGeometry>
                </mxCell>
                <mxCell id="eYTryUa2pfiXz0CCvSNq-537" value="" style="endArrow=none;html=1;rounded=0;shadow=1;entryX=1.12;entryY=0.41;entryDx=0;entryDy=0;entryPerimeter=0;exitX=-0.04;exitY=0.53;exitDx=0;exitDy=0;exitPerimeter=0;" parent="eYTryUa2pfiXz0CCvSNq-208" source="eYTryUa2pfiXz0CCvSNq-16" target="eYTryUa2pfiXz0CCvSNq-528" edge="1">
                    <mxGeometry width="50" height="50" relative="1" as="geometry">
                        <mxPoint x="120" y="160" as="sourcePoint"/>
                        <mxPoint x="70.80000000000001" y="129.8" as="targetPoint"/>
                    </mxGeometry>
                </mxCell>
                <mxCell id="eYTryUa2pfiXz0CCvSNq-538" value="" style="endArrow=none;html=1;rounded=0;shadow=1;entryX=1;entryY=0.57;entryDx=0;entryDy=0;entryPerimeter=0;exitX=0.057;exitY=0.679;exitDx=0;exitDy=0;exitPerimeter=0;" parent="eYTryUa2pfiXz0CCvSNq-208" source="eYTryUa2pfiXz0CCvSNq-17" target="eYTryUa2pfiXz0CCvSNq-529" edge="1">
                    <mxGeometry width="50" height="50" relative="1" as="geometry">
                        <mxPoint x="139.60000000000002" y="160.60000000000002" as="sourcePoint"/>
                        <mxPoint x="72.39999999999998" y="158.2" as="targetPoint"/>
                    </mxGeometry>
                </mxCell>
                <mxCell id="eYTryUa2pfiXz0CCvSNq-539" value="" style="endArrow=none;html=1;rounded=0;exitX=1;exitY=0.55;exitDx=0;exitDy=0;exitPerimeter=0;entryX=-0.159;entryY=0.547;entryDx=0;entryDy=0;entryPerimeter=0;" parent="eYTryUa2pfiXz0CCvSNq-208" source="eYTryUa2pfiXz0CCvSNq-11" target="eYTryUa2pfiXz0CCvSNq-540" edge="1">
                    <mxGeometry width="50" height="50" relative="1" as="geometry">
                        <mxPoint x="540.0000000000002" y="111.4" as="sourcePoint"/>
                        <mxPoint x="520" y="80" as="targetPoint"/>
                    </mxGeometry>
                </mxCell>
                <mxCell id="eYTryUa2pfiXz0CCvSNq-540" value="⑧" style="whiteSpace=wrap;html=1;aspect=fixed;shadow=1;" parent="eYTryUa2pfiXz0CCvSNq-208" vertex="1">
                    <mxGeometry x="560" y="10" width="20" height="20" as="geometry"/>
                </mxCell>
                <mxCell id="eYTryUa2pfiXz0CCvSNq-541" value="⑩" style="whiteSpace=wrap;html=1;aspect=fixed;shadow=1;" parent="eYTryUa2pfiXz0CCvSNq-208" vertex="1">
                    <mxGeometry x="560" y="30" width="20" height="20" as="geometry"/>
                </mxCell>
                <mxCell id="eYTryUa2pfiXz0CCvSNq-542" value="" style="endArrow=none;html=1;rounded=0;exitX=0.792;exitY=-0.074;exitDx=0;exitDy=0;exitPerimeter=0;entryX=0;entryY=0.5;entryDx=0;entryDy=0;entryPerimeter=0;" parent="eYTryUa2pfiXz0CCvSNq-208" source="eYTryUa2pfiXz0CCvSNq-14" target="eYTryUa2pfiXz0CCvSNq-541" edge="1">
                    <mxGeometry width="50" height="50" relative="1" as="geometry">
                        <mxPoint x="350" y="149.06" as="sourcePoint"/>
                        <mxPoint x="576.8199999999999" y="90.00000000000006" as="targetPoint"/>
                    </mxGeometry>
                </mxCell>
                <mxCell id="eYTryUa2pfiXz0CCvSNq-543" value="⑪" style="whiteSpace=wrap;html=1;aspect=fixed;shadow=1;" parent="eYTryUa2pfiXz0CCvSNq-208" vertex="1">
                    <mxGeometry x="560" y="50" width="20" height="20" as="geometry"/>
                </mxCell>
                <mxCell id="eYTryUa2pfiXz0CCvSNq-544" value="⑬" style="whiteSpace=wrap;html=1;aspect=fixed;shadow=1;" parent="eYTryUa2pfiXz0CCvSNq-208" vertex="1">
                    <mxGeometry x="560" y="100" width="20" height="20" as="geometry"/>
                </mxCell>
                <mxCell id="eYTryUa2pfiXz0CCvSNq-545" value="" style="endArrow=none;html=1;rounded=0;entryX=-0.159;entryY=0.409;entryDx=0;entryDy=0;entryPerimeter=0;exitX=0.583;exitY=0.064;exitDx=0;exitDy=0;exitPerimeter=0;" parent="eYTryUa2pfiXz0CCvSNq-208" source="eYTryUa2pfiXz0CCvSNq-19" target="eYTryUa2pfiXz0CCvSNq-543" edge="1">
                    <mxGeometry width="50" height="50" relative="1" as="geometry">
                        <mxPoint x="340" y="150" as="sourcePoint"/>
                        <mxPoint x="550" y="80" as="targetPoint"/>
                    </mxGeometry>
                </mxCell>
                <mxCell id="eYTryUa2pfiXz0CCvSNq-546" value="" style="endArrow=none;html=1;rounded=0;exitX=1.028;exitY=0.305;exitDx=0;exitDy=0;exitPerimeter=0;entryX=-0.159;entryY=0.478;entryDx=0;entryDy=0;entryPerimeter=0;" parent="eYTryUa2pfiXz0CCvSNq-208" source="eYTryUa2pfiXz0CCvSNq-18" target="eYTryUa2pfiXz0CCvSNq-544" edge="1">
                    <mxGeometry width="50" height="50" relative="1" as="geometry">
                        <mxPoint x="439.98" y="130" as="sourcePoint"/>
                        <mxPoint x="546.8199999999999" y="98.18" as="targetPoint"/>
                    </mxGeometry>
                </mxCell>
                <mxCell id="eYTryUa2pfiXz0CCvSNq-547" value="⑭" style="whiteSpace=wrap;html=1;aspect=fixed;shadow=1;" parent="eYTryUa2pfiXz0CCvSNq-208" vertex="1">
                    <mxGeometry x="560" y="120" width="20" height="20" as="geometry"/>
                </mxCell>
                <mxCell id="eYTryUa2pfiXz0CCvSNq-548" value="" style="endArrow=none;html=1;rounded=0;exitX=1;exitY=0.5;exitDx=0;exitDy=0;exitPerimeter=0;entryX=0;entryY=0.5;entryDx=0;entryDy=0;entryPerimeter=0;" parent="eYTryUa2pfiXz0CCvSNq-208" source="eYTryUa2pfiXz0CCvSNq-15" target="eYTryUa2pfiXz0CCvSNq-547" edge="1">
                    <mxGeometry width="50" height="50" relative="1" as="geometry">
                        <mxPoint x="410.28" y="156.10000000000002" as="sourcePoint"/>
                        <mxPoint x="546.8199999999999" y="119.56" as="targetPoint"/>
                    </mxGeometry>
                </mxCell>
                <mxCell id="eYTryUa2pfiXz0CCvSNq-549" value="⑰" style="whiteSpace=wrap;html=1;aspect=fixed;shadow=1;" parent="eYTryUa2pfiXz0CCvSNq-208" vertex="1">
                    <mxGeometry x="560" y="150" width="20" height="20" as="geometry"/>
                </mxCell>
                <mxCell id="eYTryUa2pfiXz0CCvSNq-550" value="⑱" style="whiteSpace=wrap;html=1;aspect=fixed;shadow=1;" parent="eYTryUa2pfiXz0CCvSNq-208" vertex="1">
                    <mxGeometry x="560" y="170" width="20" height="20" as="geometry"/>
                </mxCell>
                <mxCell id="eYTryUa2pfiXz0CCvSNq-551" value="" style="endArrow=none;html=1;rounded=0;entryX=0;entryY=0.5;entryDx=0;entryDy=0;entryPerimeter=0;exitX=1.028;exitY=0.322;exitDx=0;exitDy=0;exitPerimeter=0;" parent="eYTryUa2pfiXz0CCvSNq-208" source="eYTryUa2pfiXz0CCvSNq-33" target="eYTryUa2pfiXz0CCvSNq-549" edge="1">
                    <mxGeometry width="50" height="50" relative="1" as="geometry">
                        <mxPoint x="620.0000000000002" y="120" as="sourcePoint"/>
                        <mxPoint x="620.3999999999999" y="58.60000000000002" as="targetPoint"/>
                    </mxGeometry>
                </mxCell>
                <mxCell id="eYTryUa2pfiXz0CCvSNq-552" value="" style="endArrow=none;html=1;rounded=0;entryX=-0.124;entryY=0.374;entryDx=0;entryDy=0;entryPerimeter=0;exitX=1.003;exitY=0.495;exitDx=0;exitDy=0;exitPerimeter=0;" parent="eYTryUa2pfiXz0CCvSNq-208" source="eYTryUa2pfiXz0CCvSNq-32" target="eYTryUa2pfiXz0CCvSNq-550" edge="1">
                    <mxGeometry width="50" height="50" relative="1" as="geometry">
                        <mxPoint x="410.28" y="186.43999999999994" as="sourcePoint"/>
                        <mxPoint x="550" y="180" as="targetPoint"/>
                    </mxGeometry>
                </mxCell>
                <mxCell id="eYTryUa2pfiXz0CCvSNq-553" value="㉒" style="whiteSpace=wrap;html=1;aspect=fixed;shadow=1;" parent="eYTryUa2pfiXz0CCvSNq-208" vertex="1">
                    <mxGeometry x="560" y="240" width="20" height="20" as="geometry"/>
                </mxCell>
                <mxCell id="eYTryUa2pfiXz0CCvSNq-554" value="㉓" style="whiteSpace=wrap;html=1;aspect=fixed;shadow=1;" parent="eYTryUa2pfiXz0CCvSNq-208" vertex="1">
                    <mxGeometry x="590" y="230" width="20" height="20" as="geometry"/>
                </mxCell>
                <mxCell id="eYTryUa2pfiXz0CCvSNq-555" value="" style="endArrow=none;html=1;rounded=0;entryX=0.014;entryY=0.219;entryDx=0;entryDy=0;entryPerimeter=0;" parent="eYTryUa2pfiXz0CCvSNq-208" target="eYTryUa2pfiXz0CCvSNq-553" edge="1">
                    <mxGeometry width="50" height="50" relative="1" as="geometry">
                        <mxPoint x="395" y="210" as="sourcePoint"/>
                        <mxPoint x="620.3999999999999" y="58.60000000000002" as="targetPoint"/>
                    </mxGeometry>
                </mxCell>
                <mxCell id="eYTryUa2pfiXz0CCvSNq-556" value="" style="endArrow=none;html=1;rounded=0;entryX=0.048;entryY=0.219;entryDx=0;entryDy=0;entryPerimeter=0;exitX=0.995;exitY=0.822;exitDx=0;exitDy=0;exitPerimeter=0;" parent="eYTryUa2pfiXz0CCvSNq-208" source="eYTryUa2pfiXz0CCvSNq-34" target="eYTryUa2pfiXz0CCvSNq-554" edge="1">
                    <mxGeometry width="50" height="50" relative="1" as="geometry">
                        <mxPoint x="399.99999999999994" y="239.99999999999994" as="sourcePoint"/>
                        <mxPoint x="537.9399999999999" y="246.2" as="targetPoint"/>
                    </mxGeometry>
                </mxCell>
                <mxCell id="eYTryUa2pfiXz0CCvSNq-557" value="㉙" style="whiteSpace=wrap;html=1;aspect=fixed;shadow=1;" parent="eYTryUa2pfiXz0CCvSNq-208" vertex="1">
                    <mxGeometry x="560" y="280" width="20" height="20" as="geometry"/>
                </mxCell>
                <mxCell id="eYTryUa2pfiXz0CCvSNq-558" value="㉚" style="whiteSpace=wrap;html=1;aspect=fixed;shadow=1;" parent="eYTryUa2pfiXz0CCvSNq-208" vertex="1">
                    <mxGeometry x="590" y="260" width="20" height="20" as="geometry"/>
                </mxCell>
                <mxCell id="eYTryUa2pfiXz0CCvSNq-559" value="" style="endArrow=none;html=1;rounded=0;entryX=-0.159;entryY=0.064;entryDx=0;entryDy=0;entryPerimeter=0;exitX=1.033;exitY=0.571;exitDx=0;exitDy=0;exitPerimeter=0;" parent="eYTryUa2pfiXz0CCvSNq-208" source="eYTryUa2pfiXz0CCvSNq-37" target="eYTryUa2pfiXz0CCvSNq-557" edge="1">
                    <mxGeometry width="50" height="50" relative="1" as="geometry">
                        <mxPoint x="620.0000000000002" y="120" as="sourcePoint"/>
                        <mxPoint x="620.3999999999999" y="58.60000000000002" as="targetPoint"/>
                    </mxGeometry>
                </mxCell>
                <mxCell id="eYTryUa2pfiXz0CCvSNq-560" value="" style="endArrow=none;html=1;rounded=0;entryX=-0.12;entryY=0.63;entryDx=0;entryDy=0;entryPerimeter=0;" parent="eYTryUa2pfiXz0CCvSNq-208" source="eYTryUa2pfiXz0CCvSNq-36" target="eYTryUa2pfiXz0CCvSNq-558" edge="1">
                    <mxGeometry width="50" height="50" relative="1" as="geometry">
                        <mxPoint x="410.28" y="247.14" as="sourcePoint"/>
                        <mxPoint x="570" y="270" as="targetPoint"/>
                    </mxGeometry>
                </mxCell>
                <mxCell id="eYTryUa2pfiXz0CCvSNq-561" value="⑮" style="whiteSpace=wrap;html=1;aspect=fixed;shadow=1;" parent="eYTryUa2pfiXz0CCvSNq-208" vertex="1">
                    <mxGeometry x="40" y="170" width="20" height="20" as="geometry"/>
                </mxCell>
                <mxCell id="eYTryUa2pfiXz0CCvSNq-562" value="" style="endArrow=none;html=1;rounded=0;shadow=1;entryX=0.971;entryY=0.464;entryDx=0;entryDy=0;entryPerimeter=0;exitX=0;exitY=0.5;exitDx=0;exitDy=0;exitPerimeter=0;" parent="eYTryUa2pfiXz0CCvSNq-208" source="eYTryUa2pfiXz0CCvSNq-5" target="eYTryUa2pfiXz0CCvSNq-561" edge="1">
                    <mxGeometry width="50" height="50" relative="1" as="geometry">
                        <mxPoint x="139.60000000000002" y="160.60000000000002" as="sourcePoint"/>
                        <mxPoint x="72.40000000000009" y="158.2" as="targetPoint"/>
                    </mxGeometry>
                </mxCell>
                <mxCell id="eYTryUa2pfiXz0CCvSNq-563" value="⑯" style="whiteSpace=wrap;html=1;aspect=fixed;shadow=1;" parent="eYTryUa2pfiXz0CCvSNq-208" vertex="1">
                    <mxGeometry x="10" y="200" width="20" height="20" as="geometry"/>
                </mxCell>
                <mxCell id="eYTryUa2pfiXz0CCvSNq-564" value="" style="endArrow=none;html=1;rounded=0;shadow=1;entryX=0.945;entryY=0.391;entryDx=0;entryDy=0;entryPerimeter=0;exitX=0;exitY=0.5;exitDx=0;exitDy=0;exitPerimeter=0;" parent="eYTryUa2pfiXz0CCvSNq-208" source="eYTryUa2pfiXz0CCvSNq-28" target="eYTryUa2pfiXz0CCvSNq-563" edge="1">
                    <mxGeometry width="50" height="50" relative="1" as="geometry">
                        <mxPoint x="164.04" y="210" as="sourcePoint"/>
                        <mxPoint x="80.00000000000003" y="235.42000000000007" as="targetPoint"/>
                    </mxGeometry>
                </mxCell>
                <mxCell id="eYTryUa2pfiXz0CCvSNq-565" value="" style="endArrow=none;html=1;rounded=0;shadow=1;entryX=0.457;entryY=-0.021;entryDx=0;entryDy=0;entryPerimeter=0;exitX=0;exitY=0.5;exitDx=0;exitDy=0;exitPerimeter=0;" parent="eYTryUa2pfiXz0CCvSNq-208" source="eYTryUa2pfiXz0CCvSNq-6" target="eYTryUa2pfiXz0CCvSNq-566" edge="1">
                    <mxGeometry width="50" height="50" relative="1" as="geometry">
                        <mxPoint x="257.8399999999999" y="182.32000000000005" as="sourcePoint"/>
                        <mxPoint x="68.89999999999998" y="247.82000000000005" as="targetPoint"/>
                    </mxGeometry>
                </mxCell>
                <mxCell id="eYTryUa2pfiXz0CCvSNq-566" value="⑲" style="whiteSpace=wrap;html=1;aspect=fixed;shadow=1;direction=south;" parent="eYTryUa2pfiXz0CCvSNq-208" vertex="1">
                    <mxGeometry x="39" y="213" width="20" height="20" as="geometry"/>
                </mxCell>
                <mxCell id="eYTryUa2pfiXz0CCvSNq-567" value="⑳" style="whiteSpace=wrap;html=1;aspect=fixed;shadow=1;direction=south;" parent="eYTryUa2pfiXz0CCvSNq-208" vertex="1">
                    <mxGeometry x="10" y="240" width="20" height="20" as="geometry"/>
                </mxCell>
                <mxCell id="eYTryUa2pfiXz0CCvSNq-568" value="" style="endArrow=none;html=1;rounded=0;shadow=1;entryX=0.379;entryY=-0.086;entryDx=0;entryDy=0;entryPerimeter=0;exitX=-0.025;exitY=0.536;exitDx=0;exitDy=0;exitPerimeter=0;" parent="eYTryUa2pfiXz0CCvSNq-208" source="eYTryUa2pfiXz0CCvSNq-38" target="eYTryUa2pfiXz0CCvSNq-567" edge="1">
                    <mxGeometry width="50" height="50" relative="1" as="geometry">
                        <mxPoint x="160" y="220" as="sourcePoint"/>
                        <mxPoint x="71.65999999999997" y="232.65999999999997" as="targetPoint"/>
                    </mxGeometry>
                </mxCell>
                <mxCell id="eYTryUa2pfiXz0CCvSNq-569" value="㉔" style="whiteSpace=wrap;html=1;aspect=fixed;shadow=1;direction=south;" parent="eYTryUa2pfiXz0CCvSNq-208" vertex="1">
                    <mxGeometry x="40" y="257" width="20" height="20" as="geometry"/>
                </mxCell>
                <mxCell id="eYTryUa2pfiXz0CCvSNq-570" value="" style="endArrow=none;html=1;rounded=0;shadow=1;entryX=0.371;entryY=0.029;entryDx=0;entryDy=0;entryPerimeter=0;" parent="eYTryUa2pfiXz0CCvSNq-208" source="eYTryUa2pfiXz0CCvSNq-7" target="eYTryUa2pfiXz0CCvSNq-569" edge="1">
                    <mxGeometry width="50" height="50" relative="1" as="geometry">
                        <mxPoint x="160" y="220" as="sourcePoint"/>
                        <mxPoint x="69.41999999999996" y="232.14" as="targetPoint"/>
                    </mxGeometry>
                </mxCell>
                <mxCell id="eYTryUa2pfiXz0CCvSNq-571" value="" style="endArrow=none;html=1;rounded=0;shadow=1;exitX=-0.02;exitY=0.564;exitDx=0;exitDy=0;exitPerimeter=0;entryX=0.478;entryY=0.038;entryDx=0;entryDy=0;entryPerimeter=0;" parent="eYTryUa2pfiXz0CCvSNq-208" source="eYTryUa2pfiXz0CCvSNq-40" target="eYTryUa2pfiXz0CCvSNq-572" edge="1">
                    <mxGeometry width="50" height="50" relative="1" as="geometry">
                        <mxPoint x="155" y="255.52088985349974" as="sourcePoint"/>
                        <mxPoint x="40" y="290" as="targetPoint"/>
                    </mxGeometry>
                </mxCell>
                <mxCell id="eYTryUa2pfiXz0CCvSNq-572" value="㉕" style="whiteSpace=wrap;html=1;aspect=fixed;shadow=1;direction=south;" parent="eYTryUa2pfiXz0CCvSNq-208" vertex="1">
                    <mxGeometry x="10" y="280" width="20" height="20" as="geometry"/>
                </mxCell>
                <mxCell id="eYTryUa2pfiXz0CCvSNq-573" value="㉖" style="whiteSpace=wrap;html=1;aspect=fixed;shadow=1;direction=south;" parent="eYTryUa2pfiXz0CCvSNq-208" vertex="1">
                    <mxGeometry x="40" y="300" width="20" height="20" as="geometry"/>
                </mxCell>
                <mxCell id="eYTryUa2pfiXz0CCvSNq-574" value="" style="endArrow=none;html=1;rounded=0;shadow=1;entryX=0.409;entryY=-0.014;entryDx=0;entryDy=0;entryPerimeter=0;exitX=0.125;exitY=1;exitDx=0;exitDy=0;exitPerimeter=0;" parent="eYTryUa2pfiXz0CCvSNq-208" source="eYTryUa2pfiXz0CCvSNq-159" target="eYTryUa2pfiXz0CCvSNq-573" edge="1">
                    <mxGeometry width="50" height="50" relative="1" as="geometry">
                        <mxPoint x="145.58" y="290.00088985349976" as="sourcePoint"/>
                        <mxPoint x="60.00000000000007" y="308.9" as="targetPoint"/>
                    </mxGeometry>
                </mxCell>
                <mxCell id="eYTryUa2pfiXz0CCvSNq-575" value="㉛" style="whiteSpace=wrap;html=1;aspect=fixed;shadow=1;direction=south;" parent="eYTryUa2pfiXz0CCvSNq-208" vertex="1">
                    <mxGeometry x="10" y="340" width="20" height="20" as="geometry"/>
                </mxCell>
                <mxCell id="eYTryUa2pfiXz0CCvSNq-576" value="" style="endArrow=none;html=1;rounded=0;shadow=1;entryX=0.547;entryY=0.003;entryDx=0;entryDy=0;entryPerimeter=0;exitX=-0.006;exitY=0.598;exitDx=0;exitDy=0;exitPerimeter=0;" parent="eYTryUa2pfiXz0CCvSNq-208" source="eYTryUa2pfiXz0CCvSNq-60" target="eYTryUa2pfiXz0CCvSNq-575" edge="1">
                    <mxGeometry width="50" height="50" relative="1" as="geometry">
                        <mxPoint x="155" y="255.52088985349974" as="sourcePoint"/>
                        <mxPoint x="69.42000000000007" y="274.41999999999996" as="targetPoint"/>
                    </mxGeometry>
                </mxCell>
                <mxCell id="eYTryUa2pfiXz0CCvSNq-577" value="㉗" style="whiteSpace=wrap;html=1;aspect=fixed;shadow=1;direction=south;" parent="eYTryUa2pfiXz0CCvSNq-208" vertex="1">
                    <mxGeometry x="270" y="420" width="20" height="20" as="geometry"/>
                </mxCell>
                <mxCell id="eYTryUa2pfiXz0CCvSNq-578" value="" style="endArrow=none;html=1;rounded=0;shadow=1;entryX=-0.178;entryY=0.452;entryDx=0;entryDy=0;entryPerimeter=0;exitX=0.376;exitY=0.978;exitDx=0;exitDy=0;exitPerimeter=0;" parent="eYTryUa2pfiXz0CCvSNq-208" source="eYTryUa2pfiXz0CCvSNq-155" target="eYTryUa2pfiXz0CCvSNq-577" edge="1">
                    <mxGeometry width="50" height="50" relative="1" as="geometry">
                        <mxPoint x="155" y="255.52088985349974" as="sourcePoint"/>
                        <mxPoint x="69.42000000000007" y="274.41999999999996" as="targetPoint"/>
                    </mxGeometry>
                </mxCell>
                <mxCell id="eYTryUa2pfiXz0CCvSNq-579" value="㉘" style="whiteSpace=wrap;html=1;aspect=fixed;shadow=1;direction=south;" parent="eYTryUa2pfiXz0CCvSNq-208" vertex="1">
                    <mxGeometry x="320" y="420" width="20" height="20" as="geometry"/>
                </mxCell>
                <mxCell id="eYTryUa2pfiXz0CCvSNq-580" value="" style="endArrow=none;html=1;rounded=0;shadow=1;entryX=-0.178;entryY=0.659;entryDx=0;entryDy=0;entryPerimeter=0;exitX=0.41;exitY=0.978;exitDx=0;exitDy=0;exitPerimeter=0;" parent="eYTryUa2pfiXz0CCvSNq-208" source="eYTryUa2pfiXz0CCvSNq-153" target="eYTryUa2pfiXz0CCvSNq-579" edge="1">
                    <mxGeometry width="50" height="50" relative="1" as="geometry">
                        <mxPoint x="327.52" y="259.55999999999995" as="sourcePoint"/>
                        <mxPoint x="300.96000000000004" y="426.43999999999994" as="targetPoint"/>
                    </mxGeometry>
                </mxCell>
                <mxCell id="eYTryUa2pfiXz0CCvSNq-581" value="㉜" style="whiteSpace=wrap;html=1;aspect=fixed;shadow=1;direction=south;" parent="eYTryUa2pfiXz0CCvSNq-208" vertex="1">
                    <mxGeometry x="350" y="420" width="20" height="20" as="geometry"/>
                </mxCell>
                <mxCell id="eYTryUa2pfiXz0CCvSNq-582" value="" style="endArrow=none;html=1;rounded=0;shadow=1;entryX=-0.04;entryY=0.59;entryDx=0;entryDy=0;entryPerimeter=0;exitX=0.515;exitY=0.926;exitDx=0;exitDy=0;exitPerimeter=0;" parent="eYTryUa2pfiXz0CCvSNq-208" source="eYTryUa2pfiXz0CCvSNq-146" target="eYTryUa2pfiXz0CCvSNq-581" edge="1">
                    <mxGeometry width="50" height="50" relative="1" as="geometry">
                        <mxPoint x="348.20000000000005" y="259.55999999999995" as="sourcePoint"/>
                        <mxPoint x="346.81999999999994" y="426.43999999999994" as="targetPoint"/>
                    </mxGeometry>
                </mxCell>
                <mxCell id="eYTryUa2pfiXz0CCvSNq-583" value="㉝" style="whiteSpace=wrap;html=1;aspect=fixed;shadow=1;direction=south;" parent="eYTryUa2pfiXz0CCvSNq-208" vertex="1">
                    <mxGeometry x="380" y="420" width="20" height="20" as="geometry"/>
                </mxCell>
                <mxCell id="eYTryUa2pfiXz0CCvSNq-584" value="" style="endArrow=none;html=1;rounded=0;shadow=1;entryX=-0.143;entryY=0.71;entryDx=0;entryDy=0;entryPerimeter=0;exitX=0.545;exitY=1.029;exitDx=0;exitDy=0;exitPerimeter=0;" parent="eYTryUa2pfiXz0CCvSNq-208" source="eYTryUa2pfiXz0CCvSNq-150" target="eYTryUa2pfiXz0CCvSNq-583" edge="1">
                    <mxGeometry width="50" height="50" relative="1" as="geometry">
                        <mxPoint x="385.44999999999993" y="388.52" as="sourcePoint"/>
                        <mxPoint x="388.20000000000005" y="429.1999999999998" as="targetPoint"/>
                    </mxGeometry>
                </mxCell>
                <mxCell id="eYTryUa2pfiXz0CCvSNq-585" value="㉞" style="whiteSpace=wrap;html=1;aspect=fixed;shadow=1;direction=south;" parent="eYTryUa2pfiXz0CCvSNq-208" vertex="1">
                    <mxGeometry x="420" y="420" width="20" height="20" as="geometry"/>
                </mxCell>
                <mxCell id="eYTryUa2pfiXz0CCvSNq-586" value="" style="endArrow=none;html=1;rounded=0;shadow=1;entryX=-0.109;entryY=0.555;entryDx=0;entryDy=0;entryPerimeter=0;exitX=0.495;exitY=1.029;exitDx=0;exitDy=0;exitPerimeter=0;" parent="eYTryUa2pfiXz0CCvSNq-208" source="eYTryUa2pfiXz0CCvSNq-147" target="eYTryUa2pfiXz0CCvSNq-585" edge="1">
                    <mxGeometry width="50" height="50" relative="1" as="geometry">
                        <mxPoint x="405.44999999999993" y="390.5799999999998" as="sourcePoint"/>
                        <mxPoint x="405.80000000000007" y="427.14" as="targetPoint"/>
                    </mxGeometry>
                </mxCell>
                <mxCell id="nycEh2morPDKff7b-ZzW-1" value="㉑" style="whiteSpace=wrap;html=1;aspect=fixed;shadow=1;" parent="eYTryUa2pfiXz0CCvSNq-208" vertex="1">
                    <mxGeometry x="560" y="200" width="20" height="20" as="geometry"/>
                </mxCell>
                <mxCell id="nycEh2morPDKff7b-ZzW-2" value="" style="endArrow=none;html=1;rounded=0;entryX=-0.15;entryY=0.25;entryDx=0;entryDy=0;entryPerimeter=0;" parent="eYTryUa2pfiXz0CCvSNq-208" source="eYTryUa2pfiXz0CCvSNq-152" target="nycEh2morPDKff7b-ZzW-1" edge="1">
                    <mxGeometry width="50" height="50" relative="1" as="geometry">
                        <mxPoint x="477.33483907396953" y="260" as="sourcePoint"/>
                        <mxPoint x="546.8199999999999" y="285.41999999999996" as="targetPoint"/>
                    </mxGeometry>
                </mxCell>
                <mxCell id="nycEh2morPDKff7b-ZzW-3" value="⑫" style="whiteSpace=wrap;html=1;aspect=fixed;shadow=1;" parent="eYTryUa2pfiXz0CCvSNq-208" vertex="1">
                    <mxGeometry x="560" y="80" width="20" height="20" as="geometry"/>
                </mxCell>
                <mxCell id="nycEh2morPDKff7b-ZzW-4" value="" style="endArrow=none;html=1;rounded=0;entryX=0;entryY=0.5;entryDx=0;entryDy=0;entryPerimeter=0;exitX=0.833;exitY=0;exitDx=0;exitDy=0;exitPerimeter=0;" parent="eYTryUa2pfiXz0CCvSNq-208" source="eYTryUa2pfiXz0CCvSNq-12" target="nycEh2morPDKff7b-ZzW-3" edge="1">
                    <mxGeometry width="50" height="50" relative="1" as="geometry">
                        <mxPoint x="351.65999999999997" y="151.27999999999997" as="sourcePoint"/>
                        <mxPoint x="546.8199999999999" y="68.18" as="targetPoint"/>
                    </mxGeometry>
                </mxCell>
                <mxCell id="8I_ROSzSqiyH3dXBf1Dt-4" value="㊱" style="whiteSpace=wrap;html=1;aspect=fixed;shadow=1;" parent="eYTryUa2pfiXz0CCvSNq-208" vertex="1">
                    <mxGeometry x="560" y="330" width="20" height="20" as="geometry"/>
                </mxCell>
                <mxCell id="8I_ROSzSqiyH3dXBf1Dt-5" value="㊲" style="whiteSpace=wrap;html=1;aspect=fixed;shadow=1;" parent="eYTryUa2pfiXz0CCvSNq-208" vertex="1">
                    <mxGeometry x="560" y="350" width="20" height="20" as="geometry"/>
                </mxCell>
                <mxCell id="8I_ROSzSqiyH3dXBf1Dt-6" value="&lt;div&gt;㊳&lt;/div&gt;" style="whiteSpace=wrap;html=1;aspect=fixed;shadow=1;" parent="eYTryUa2pfiXz0CCvSNq-208" vertex="1">
                    <mxGeometry x="560" y="370" width="20" height="20" as="geometry"/>
                </mxCell>
                <mxCell id="8I_ROSzSqiyH3dXBf1Dt-7" value="" style="endArrow=none;html=1;rounded=0;entryX=0;entryY=0.5;entryDx=0;entryDy=0;entryPerimeter=0;exitX=1.01;exitY=0.61;exitDx=0;exitDy=0;exitPerimeter=0;" parent="eYTryUa2pfiXz0CCvSNq-208" source="8I_ROSzSqiyH3dXBf1Dt-1" target="8I_ROSzSqiyH3dXBf1Dt-4" edge="1">
                    <mxGeometry width="50" height="50" relative="1" as="geometry">
                        <mxPoint x="490" y="258.83468834688347" as="sourcePoint"/>
                        <mxPoint x="597.6" y="282.6" as="targetPoint"/>
                    </mxGeometry>
                </mxCell>
                <mxCell id="8I_ROSzSqiyH3dXBf1Dt-8" value="" style="endArrow=none;html=1;rounded=0;entryX=-0.12;entryY=0.37;entryDx=0;entryDy=0;entryPerimeter=0;exitX=1;exitY=0.61;exitDx=0;exitDy=0;exitPerimeter=0;" parent="eYTryUa2pfiXz0CCvSNq-208" source="8I_ROSzSqiyH3dXBf1Dt-2" target="8I_ROSzSqiyH3dXBf1Dt-5" edge="1">
                    <mxGeometry width="50" height="50" relative="1" as="geometry">
                        <mxPoint x="530.4" y="312.2" as="sourcePoint"/>
                        <mxPoint x="570" y="330" as="targetPoint"/>
                    </mxGeometry>
                </mxCell>
                <mxCell id="8I_ROSzSqiyH3dXBf1Dt-9" value="" style="endArrow=none;html=1;rounded=0;entryX=-0.02;entryY=0.47;entryDx=0;entryDy=0;entryPerimeter=0;exitX=1.03;exitY=0.49;exitDx=0;exitDy=0;exitPerimeter=0;" parent="eYTryUa2pfiXz0CCvSNq-208" source="8I_ROSzSqiyH3dXBf1Dt-3" target="8I_ROSzSqiyH3dXBf1Dt-6" edge="1">
                    <mxGeometry width="50" height="50" relative="1" as="geometry">
                        <mxPoint x="530" y="332.20000000000005" as="sourcePoint"/>
                        <mxPoint x="567.6" y="347.4" as="targetPoint"/>
                    </mxGeometry>
                </mxCell>
                <mxCell id="8I_ROSzSqiyH3dXBf1Dt-11" value="" style="endArrow=none;html=1;rounded=0;exitX=1;exitY=0.9;exitDx=0;exitDy=0;exitPerimeter=0;entryX=0;entryY=0.483;entryDx=0;entryDy=0;entryPerimeter=0;" parent="eYTryUa2pfiXz0CCvSNq-208" source="8I_ROSzSqiyH3dXBf1Dt-10" target="8I_ROSzSqiyH3dXBf1Dt-12" edge="1">
                    <mxGeometry width="50" height="50" relative="1" as="geometry">
                        <mxPoint x="410.3299999999999" y="251.42000000000002" as="sourcePoint"/>
                        <mxPoint x="560" y="310" as="targetPoint"/>
                    </mxGeometry>
                </mxCell>
                <mxCell id="8I_ROSzSqiyH3dXBf1Dt-12" value="㉟" style="whiteSpace=wrap;html=1;aspect=fixed;shadow=1;" parent="eYTryUa2pfiXz0CCvSNq-208" vertex="1">
                    <mxGeometry x="560" y="300" width="20" height="20" as="geometry"/>
                </mxCell>
            </root>
        </mxGraphModel>
    </diagram>
</mxfile>